<svg width="282" height="34" viewBox="0 0 282 34" fill="none" xmlns="http://www.w3.org/2000/svg">
<path d="M1.48 29.4C0.786667 29.4 0.44 28.9733 0.44 28.12V9.4C0.44 6.65333 1.2 4.50666 2.72 2.96C4.26667 1.38667 6.38667 0.599998 9.08 0.599998C10.76 0.599998 12.2933 1.04 13.68 1.92C15.0933 2.8 16.08 3.94666 16.64 5.36C17.2267 3.92 18.2 2.77333 19.56 1.92C20.9467 1.04 22.5067 0.599998 24.24 0.599998C26.9333 0.599998 29.04 1.38667 30.56 2.96C32.1067 4.50666 32.88 6.65333 32.88 9.4V28.12C32.88 28.9733 32.52 29.4 31.8 29.4C31.1067 29.4 30.76 28.9733 30.76 28.12V9.4C30.76 7.10667 30.2267 5.4 29.16 4.28C28.0933 3.16 26.4533 2.6 24.24 2.6C22.2133 2.6 20.6133 3.21333 19.44 4.44C18.2667 5.64 17.68 7.29333 17.68 9.4V28.12C17.68 28.9733 17.3333 29.4 16.64 29.4C15.9733 29.4 15.64 28.9733 15.64 28.12V9.4C15.64 7.34667 15.04 5.70667 13.84 4.48C12.64 3.22667 11.0533 2.6 9.08 2.6C6.86667 2.6 5.22667 3.16 4.16 4.28C3.09333 5.4 2.56 7.10667 2.56 9.4V28.12C2.56 28.9733 2.2 29.4 1.48 29.4ZM44.4159 29C42.9493 29 41.8026 28.6133 40.9759 27.84C40.1759 27.0667 39.7759 25.9867 39.7759 24.6V5.4C39.7759 4.01333 40.1759 2.93333 40.9759 2.16C41.8026 1.38667 42.9493 0.999998 44.4159 0.999998H56.8159C57.2426 0.999998 57.5493 1.08 57.7359 1.24C57.9226 1.37333 58.0159 1.61333 58.0159 1.96C58.0159 2.57333 57.6159 2.88 56.8159 2.88H44.1759C43.4826 2.88 42.9226 3.10666 42.4959 3.56C42.0959 3.98667 41.8959 4.56 41.8959 5.28V13.76H53.7759C54.2026 13.76 54.5093 13.84 54.6959 14C54.8826 14.1333 54.9759 14.3733 54.9759 14.72C54.9759 15.3333 54.5759 15.64 53.7759 15.64H41.8959V24.72C41.8959 25.44 42.0959 26.0267 42.4959 26.48C42.9226 26.9067 43.4826 27.12 44.1759 27.12H57.6959C58.1226 27.12 58.4293 27.2 58.6159 27.36C58.8026 27.4933 58.8959 27.7333 58.8959 28.08C58.8959 28.6933 58.4959 29 57.6959 29H44.4159ZM65.8159 29.4C65.1226 29.4 64.7759 28.9733 64.7759 28.12V9.4C64.7759 6.65333 65.5359 4.50666 67.0559 2.96C68.6026 1.38667 70.7226 0.599998 73.4159 0.599998C75.0959 0.599998 76.6293 1.04 78.0159 1.92C79.4293 2.8 80.4159 3.94666 80.9759 5.36C81.5626 3.92 82.5359 2.77333 83.8959 1.92C85.2826 1.04 86.8426 0.599998 88.5759 0.599998C91.2693 0.599998 93.3759 1.38667 94.8959 2.96C96.4426 4.50666 97.2159 6.65333 97.2159 9.4V28.12C97.2159 28.9733 96.8559 29.4 96.1359 29.4C95.4426 29.4 95.0959 28.9733 95.0959 28.12V9.4C95.0959 7.10667 94.5626 5.4 93.4959 4.28C92.4293 3.16 90.7893 2.6 88.5759 2.6C86.5493 2.6 84.9493 3.21333 83.7759 4.44C82.6026 5.64 82.0159 7.29333 82.0159 9.4V28.12C82.0159 28.9733 81.6693 29.4 80.9759 29.4C80.3093 29.4 79.9759 28.9733 79.9759 28.12V9.4C79.9759 7.34667 79.3759 5.70667 78.1759 4.48C76.9759 3.22667 75.3893 2.6 73.4159 2.6C71.2026 2.6 69.5626 3.16 68.4959 4.28C67.4293 5.4 66.8959 7.10667 66.8959 9.4V28.12C66.8959 28.9733 66.5359 29.4 65.8159 29.4ZM116.056 29.4C113.523 29.4 111.19 28.8133 109.056 27.64C106.95 26.4667 105.256 24.7867 103.976 22.6C102.723 20.4133 102.096 17.88 102.096 15C102.096 12.12 102.723 9.58667 103.976 7.4C105.256 5.21333 106.95 3.53333 109.056 2.36C111.19 1.18667 113.523 0.599998 116.056 0.599998C118.59 0.599998 120.91 1.18667 123.016 2.36C125.15 3.53333 126.843 5.21333 128.096 7.4C129.376 9.58667 130.016 12.12 130.016 15C130.016 17.88 129.376 20.4133 128.096 22.6C126.843 24.7867 125.15 26.4667 123.016 27.64C120.91 28.8133 118.59 29.4 116.056 29.4ZM116.056 27.44C118.27 27.44 120.27 26.96 122.056 26C123.843 25.04 125.256 23.6267 126.296 21.76C127.363 19.8667 127.896 17.6133 127.896 15C127.896 12.3867 127.363 10.1467 126.296 8.28C125.256 6.38667 123.843 4.96 122.056 4C120.27 3.04 118.27 2.56 116.056 2.56C113.843 2.56 111.843 3.04 110.056 4C108.27 4.96 106.843 6.38667 105.776 8.28C104.736 10.1467 104.216 12.3867 104.216 15C104.216 17.6133 104.736 19.8667 105.776 21.76C106.843 23.6267 108.27 25.04 110.056 26C111.843 26.96 113.843 27.44 116.056 27.44ZM134.909 33.72C134.749 33.56 134.669 33.4 134.669 33.24C134.669 33.1067 134.722 32.9733 134.829 32.84C134.962 32.7067 135.109 32.5733 135.269 32.44C136.069 31.7467 136.682 31.1067 137.109 30.52C137.535 29.96 137.762 29.4 137.789 28.84C137.602 28.92 137.389 28.96 137.149 28.96C136.615 28.96 136.135 28.7733 135.709 28.4C135.309 28.0267 135.109 27.5733 135.109 27.04C135.109 26.3467 135.309 25.8133 135.709 25.44C136.109 25.04 136.669 24.84 137.389 24.84C138.109 24.84 138.669 25.0933 139.069 25.6C139.495 26.1067 139.709 26.8267 139.709 27.76C139.709 29.6267 138.642 31.48 136.509 33.32C135.975 33.7733 135.589 34 135.349 34C135.162 34 135.015 33.9067 134.909 33.72ZM160.905 29C159.438 29 158.292 28.6133 157.465 27.84C156.665 27.0667 156.265 25.9867 156.265 24.6V1.88C156.265 1.02667 156.612 0.599998 157.305 0.599998C158.025 0.599998 158.385 1.02667 158.385 1.88V24.72C158.385 25.44 158.585 26.0267 158.985 26.48C159.412 26.9067 159.972 27.12 160.665 27.12H174.185C174.612 27.12 174.918 27.2 175.105 27.36C175.292 27.4933 175.385 27.7333 175.385 28.08C175.385 28.6933 174.985 29 174.185 29H160.905ZM185.51 29C184.043 29 182.896 28.6133 182.07 27.84C181.27 27.0667 180.87 25.9867 180.87 24.6V5.4C180.87 4.01333 181.27 2.93333 182.07 2.16C182.896 1.38667 184.043 0.999998 185.51 0.999998H197.91C198.336 0.999998 198.643 1.08 198.83 1.24C199.016 1.37333 199.11 1.61333 199.11 1.96C199.11 2.57333 198.71 2.88 197.91 2.88H185.27C184.576 2.88 184.016 3.10666 183.59 3.56C183.19 3.98667 182.99 4.56 182.99 5.28V13.76H194.87C195.296 13.76 195.603 13.84 195.79 14C195.976 14.1333 196.07 14.3733 196.07 14.72C196.07 15.3333 195.67 15.64 194.87 15.64H182.99V24.72C182.99 25.44 183.19 26.0267 183.59 26.48C184.016 26.9067 184.576 27.12 185.27 27.12H198.79C199.216 27.12 199.523 27.2 199.71 27.36C199.896 27.4933 199.99 27.7333 199.99 28.08C199.99 28.6933 199.59 29 198.79 29H185.51ZM210.51 29C209.043 29 207.896 28.6133 207.07 27.84C206.27 27.0667 205.87 25.9867 205.87 24.6V5.4C205.87 4.01333 206.27 2.93333 207.07 2.16C207.896 1.38667 209.043 0.999998 210.51 0.999998H222.91C223.336 0.999998 223.643 1.08 223.83 1.24C224.016 1.37333 224.11 1.61333 224.11 1.96C224.11 2.57333 223.71 2.88 222.91 2.88H210.27C209.576 2.88 209.016 3.10666 208.59 3.56C208.19 3.98667 207.99 4.56 207.99 5.28V13.76H219.87C220.296 13.76 220.603 13.84 220.79 14C220.976 14.1333 221.07 14.3733 221.07 14.72C221.07 15.3333 220.67 15.64 219.87 15.64H207.99V24.72C207.99 25.44 208.19 26.0267 208.59 26.48C209.016 26.9067 209.576 27.12 210.27 27.12H223.79C224.216 27.12 224.523 27.2 224.71 27.36C224.896 27.4933 224.99 27.7333 224.99 28.08C224.99 28.6933 224.59 29 223.79 29H210.51ZM235.51 29C234.043 29 232.896 28.6133 232.07 27.84C231.27 27.0667 230.87 25.9867 230.87 24.6V5.4C230.87 4.01333 231.27 2.93333 232.07 2.16C232.896 1.38667 234.043 0.999998 235.51 0.999998H241.15C243.79 0.999998 246.11 1.58667 248.11 2.76C250.136 3.90667 251.696 5.54667 252.79 7.68C253.883 9.78667 254.43 12.24 254.43 15.04C254.43 17.84 253.883 20.2933 252.79 22.4C251.696 24.5067 250.15 26.1333 248.15 27.28C246.15 28.4267 243.816 29 241.15 29H235.51ZM240.75 27.12C244.35 27.12 247.163 26.0533 249.19 23.92C251.243 21.7867 252.27 18.8267 252.27 15.04C252.27 12.5333 251.803 10.3733 250.87 8.56C249.963 6.72 248.643 5.32 246.91 4.36C245.176 3.37333 243.123 2.88 240.75 2.88H235.27C234.576 2.88 234.016 3.10666 233.59 3.56C233.19 3.98667 232.99 4.56 232.99 5.28V24.72C232.99 25.44 233.19 26.0267 233.59 26.48C234.016 26.9067 234.576 27.12 235.27 27.12H240.75ZM271.083 29.4C268.576 29.4 266.269 28.96 264.163 28.08C262.083 27.2 260.536 26.0267 259.523 24.56C259.389 24.3467 259.323 24.1467 259.323 23.96C259.323 23.5867 259.483 23.3067 259.803 23.12C259.909 23.04 260.056 23 260.243 23C260.616 23 260.963 23.2 261.283 23.6C262.296 24.8267 263.643 25.7733 265.323 26.44C267.003 27.08 268.923 27.4 271.083 27.4C273.696 27.4 275.696 26.92 277.083 25.96C278.496 25 279.203 23.6267 279.203 21.84C279.203 20.3467 278.549 19.1467 277.243 18.24C275.936 17.3067 273.709 16.4933 270.563 15.8C266.776 14.9733 264.056 13.9333 262.403 12.68C260.749 11.4267 259.923 9.77333 259.923 7.72C259.923 5.50667 260.816 3.77333 262.603 2.52C264.416 1.24 266.896 0.599998 270.043 0.599998C272.496 0.599998 274.683 1.04 276.603 1.92C278.549 2.77333 279.909 3.92 280.683 5.36C280.763 5.52 280.803 5.69333 280.803 5.88C280.803 6.25333 280.629 6.53333 280.283 6.72C280.123 6.8 279.963 6.84 279.803 6.84C279.589 6.84 279.376 6.78667 279.163 6.68C278.976 6.57333 278.829 6.42667 278.723 6.24C278.029 5.06667 276.936 4.17333 275.443 3.56C273.949 2.92 272.149 2.6 270.043 2.6C267.349 2.6 265.349 3.02667 264.043 3.88C262.736 4.70667 262.083 5.98667 262.083 7.72C262.083 8.73333 262.349 9.58667 262.883 10.28C263.416 10.9733 264.283 11.5867 265.483 12.12C266.709 12.6267 268.403 13.1333 270.563 13.64C274.349 14.52 277.096 15.6133 278.803 16.92C280.509 18.2 281.363 19.84 281.363 21.84C281.363 24.1867 280.443 26.04 278.603 27.4C276.763 28.7333 274.256 29.4 271.083 29.4Z" fill="url(#paint0_linear_19_1805)"/>
<defs>
<linearGradient id="paint0_linear_19_1805" x1="-3" y1="14" x2="284" y2="14" gradientUnits="userSpaceOnUse">
<stop offset="0.171875" stop-color="#1D2B64"/>
<stop offset="1" stop-color="#FFB0C8"/>
</linearGradient>
</defs>
</svg>
