<svg width="42" height="42" viewBox="0 0 42 42" fill="none" xmlns="http://www.w3.org/2000/svg">
<g filter="url(#filter0_i_19_1807)">
<path d="M34.6995 0C33.8039 0 32.9082 0.342016 32.2249 1.02539L28.0002 5.25L36.7503 14L40.9749 9.77539C42.3417 8.40864 42.3417 6.19292 40.9749 4.82617L37.1741 1.02539C36.4907 0.342016 35.5951 0 34.6995 0ZM24.5002 8.75L3.95462 29.2954C3.95462 29.2954 5.56072 29.1515 6.15923 29.75C6.75773 30.3485 6.26505 34.265 7.00005 35C7.73506 35.735 11.6269 35.2176 12.1852 35.7759C12.7434 36.3341 12.7047 38.0454 12.7047 38.0454L33.2503 17.5L24.5002 8.75ZM1.75001 35L0.0991219 39.6758C0.0342222 39.8603 0.000717217 40.0544 0 40.25C0 40.7141 0.184376 41.1592 0.512567 41.4874C0.840758 41.8156 1.28588 42 1.75001 42C1.94562 41.9993 2.13971 41.9658 2.32424 41.9009C2.32995 41.8986 2.33564 41.8964 2.34133 41.894L2.38576 41.8804C2.38919 41.8781 2.3926 41.8758 2.39601 41.8735L7.00005 40.25L4.37503 37.625L1.75001 35Z" fill="url(#paint0_linear_19_1807)"/>
</g>
<defs>
<filter id="filter0_i_19_1807" x="0" y="0" width="42" height="46" filterUnits="userSpaceOnUse" color-interpolation-filters="sRGB">
<feFlood flood-opacity="0" result="BackgroundImageFix"/>
<feBlend mode="normal" in="SourceGraphic" in2="BackgroundImageFix" result="shape"/>
<feColorMatrix in="SourceAlpha" type="matrix" values="0 0 0 0 0 0 0 0 0 0 0 0 0 0 0 0 0 0 127 0" result="hardAlpha"/>
<feOffset dy="4"/>
<feGaussianBlur stdDeviation="2"/>
<feComposite in2="hardAlpha" operator="arithmetic" k2="-1" k3="1"/>
<feColorMatrix type="matrix" values="0 0 0 0 0.415686 0 0 0 0 0.423529 0 0 0 0 0.619608 0 0 0 0.5 0"/>
<feBlend mode="normal" in2="shape" result="effect1_innerShadow_19_1807"/>
</filter>
<linearGradient id="paint0_linear_19_1807" x1="-19" y1="37.5" x2="40.5" y2="18.5" gradientUnits="userSpaceOnUse">
<stop stop-color="#9797FF"/>
<stop offset="1" stop-color="#FFC9D6"/>
</linearGradient>
</defs>
</svg>
