<svg width="414" height="112" viewBox="0 0 414 112" fill="none" xmlns="http://www.w3.org/2000/svg">
<path fill-rule="evenodd" clip-rule="evenodd" d="M414 24.8889L408.135 35.2593C402.615 45.6296 390.885 66.3704 379.5 74.6667C368.115 82.963 356.385 78.8148 345 82.963C333.615 87.1111 321.885 99.5556 310.5 93.3333C299.115 87.1111 287.385 62.2222 276 53.9259C264.615 45.6296 252.885 53.9259 241.5 60.1481C230.115 66.3704 218.385 70.5185 207 62.2222C195.615 53.9259 183.885 33.1852 172.5 33.1852C161.115 33.1852 149.385 53.9259 138 70.5185C126.615 87.1111 114.885 99.5556 103.5 87.1111C92.115 74.6667 80.385 37.3333 69 31.1111C57.615 24.8889 45.885 49.7778 34.5 49.7778C23.115 49.7778 11.385 24.8889 5.86499 12.4444L0 0V112H5.86499C11.385 112 23.115 112 34.5 112C45.885 112 57.615 112 69 112C80.385 112 92.115 112 103.5 112C114.885 112 126.615 112 138 112C149.385 112 161.115 112 172.5 112C183.885 112 195.615 112 207 112C218.385 112 230.115 112 241.5 112C252.885 112 264.615 112 276 112C287.385 112 299.115 112 310.5 112C321.885 112 333.615 112 345 112C356.385 112 368.115 112 379.5 112C390.885 112 402.615 112 408.135 112H414V24.8889Z" fill="url(#paint0_linear_19_1810)"/>
<defs>
<linearGradient id="paint0_linear_19_1810" x1="207" y1="0" x2="207" y2="112" gradientUnits="userSpaceOnUse">
<stop stop-color="#C2C5FF"/>
<stop offset="1" stop-color="#FFCDCD" stop-opacity="0"/>
</linearGradient>
</defs>
</svg>
